<mxfile host="Electron" modified="2023-06-11T01:56:37.234Z" agent="Mozilla/5.0 (Windows NT 10.0; Win64; x64) AppleWebKit/537.36 (KHTML, like Gecko) draw.io/21.3.7 Chrome/112.0.5615.204 Electron/24.5.0 Safari/537.36" etag="AicwqBC2z6R6ErisIM1T" version="21.3.7" type="device">
  <diagram id="C5RBs43oDa-KdzZeNtuy" name="Page-1">
    <mxGraphModel dx="1197" dy="1997" grid="1" gridSize="10" guides="1" tooltips="1" connect="1" arrows="1" fold="1" page="1" pageScale="1" pageWidth="827" pageHeight="1169" math="0" shadow="0">
      <root>
        <mxCell id="WIyWlLk6GJQsqaUBKTNV-0" />
        <mxCell id="WIyWlLk6GJQsqaUBKTNV-1" parent="WIyWlLk6GJQsqaUBKTNV-0" />
        <mxCell id="yy_gVU0dqNNYbV7ipbau-94" style="edgeStyle=orthogonalEdgeStyle;rounded=0;orthogonalLoop=1;jettySize=auto;html=1;entryX=0.082;entryY=0.073;entryDx=0;entryDy=0;entryPerimeter=0;" parent="WIyWlLk6GJQsqaUBKTNV-1" source="yy_gVU0dqNNYbV7ipbau-27" target="yy_gVU0dqNNYbV7ipbau-91" edge="1">
          <mxGeometry relative="1" as="geometry" />
        </mxCell>
        <mxCell id="yy_gVU0dqNNYbV7ipbau-27" value="" style="rounded=0;whiteSpace=wrap;html=1;" parent="WIyWlLk6GJQsqaUBKTNV-1" vertex="1">
          <mxGeometry x="375" y="-60" width="375" height="129" as="geometry" />
        </mxCell>
        <mxCell id="yy_gVU0dqNNYbV7ipbau-0" value="" style="strokeWidth=2;html=1;shape=mxgraph.flowchart.start_2;whiteSpace=wrap;" parent="WIyWlLk6GJQsqaUBKTNV-1" vertex="1">
          <mxGeometry x="160" y="327" width="50" height="50" as="geometry" />
        </mxCell>
        <mxCell id="yy_gVU0dqNNYbV7ipbau-1" value="" style="ellipse;html=1;shape=endState;fillColor=#000000;strokeColor=#ff0000;" parent="WIyWlLk6GJQsqaUBKTNV-1" vertex="1">
          <mxGeometry x="910" y="302" width="60" height="50" as="geometry" />
        </mxCell>
        <mxCell id="yy_gVU0dqNNYbV7ipbau-12" style="edgeStyle=orthogonalEdgeStyle;rounded=0;orthogonalLoop=1;jettySize=auto;html=1;entryX=0;entryY=0.539;entryDx=0;entryDy=0;entryPerimeter=0;exitX=1;exitY=0.5;exitDx=0;exitDy=0;exitPerimeter=0;" parent="WIyWlLk6GJQsqaUBKTNV-1" source="yy_gVU0dqNNYbV7ipbau-0" target="yy_gVU0dqNNYbV7ipbau-11" edge="1">
          <mxGeometry relative="1" as="geometry">
            <mxPoint x="210" y="300" as="sourcePoint" />
            <Array as="points">
              <mxPoint x="210" y="354" />
            </Array>
          </mxGeometry>
        </mxCell>
        <mxCell id="yy_gVU0dqNNYbV7ipbau-46" style="edgeStyle=orthogonalEdgeStyle;rounded=0;orthogonalLoop=1;jettySize=auto;html=1;entryX=0;entryY=0.5;entryDx=0;entryDy=0;entryPerimeter=0;" parent="WIyWlLk6GJQsqaUBKTNV-1" edge="1">
          <mxGeometry relative="1" as="geometry">
            <mxPoint x="307" y="290.9999999999998" as="sourcePoint" />
            <mxPoint x="371.9999999999999" y="178" as="targetPoint" />
            <Array as="points">
              <mxPoint x="343" y="291" />
              <mxPoint x="343" y="178" />
            </Array>
          </mxGeometry>
        </mxCell>
        <mxCell id="yy_gVU0dqNNYbV7ipbau-39" style="edgeStyle=orthogonalEdgeStyle;rounded=0;orthogonalLoop=1;jettySize=auto;html=1;entryX=0;entryY=0.5;entryDx=0;entryDy=0;" parent="WIyWlLk6GJQsqaUBKTNV-1" source="yy_gVU0dqNNYbV7ipbau-11" target="yy_gVU0dqNNYbV7ipbau-27" edge="1">
          <mxGeometry relative="1" as="geometry">
            <Array as="points">
              <mxPoint x="343" y="290" />
              <mxPoint x="343" y="5" />
            </Array>
          </mxGeometry>
        </mxCell>
        <mxCell id="yy_gVU0dqNNYbV7ipbau-41" style="edgeStyle=orthogonalEdgeStyle;rounded=0;orthogonalLoop=1;jettySize=auto;html=1;entryX=0;entryY=0.5;entryDx=0;entryDy=0;entryPerimeter=0;" parent="WIyWlLk6GJQsqaUBKTNV-1" source="yy_gVU0dqNNYbV7ipbau-11" target="yy_gVU0dqNNYbV7ipbau-14" edge="1">
          <mxGeometry relative="1" as="geometry">
            <Array as="points">
              <mxPoint x="343" y="290" />
              <mxPoint x="343" y="110" />
            </Array>
          </mxGeometry>
        </mxCell>
        <mxCell id="yy_gVU0dqNNYbV7ipbau-48" style="edgeStyle=orthogonalEdgeStyle;rounded=0;orthogonalLoop=1;jettySize=auto;html=1;entryX=0.002;entryY=0.577;entryDx=0;entryDy=0;entryPerimeter=0;" parent="WIyWlLk6GJQsqaUBKTNV-1" edge="1">
          <mxGeometry relative="1" as="geometry">
            <mxPoint x="313" y="290" as="sourcePoint" />
            <mxPoint x="372.19999999999993" y="254.62000000000012" as="targetPoint" />
            <Array as="points">
              <mxPoint x="343" y="290" />
              <mxPoint x="343" y="255" />
            </Array>
          </mxGeometry>
        </mxCell>
        <mxCell id="yy_gVU0dqNNYbV7ipbau-49" style="edgeStyle=orthogonalEdgeStyle;rounded=0;orthogonalLoop=1;jettySize=auto;html=1;entryX=0;entryY=0.5;entryDx=0;entryDy=0;entryPerimeter=0;" parent="WIyWlLk6GJQsqaUBKTNV-1" edge="1">
          <mxGeometry relative="1" as="geometry">
            <mxPoint x="313" y="290.0114942528737" as="sourcePoint" />
            <mxPoint x="372" y="320" as="targetPoint" />
            <Array as="points">
              <mxPoint x="343" y="290" />
              <mxPoint x="343" y="320" />
            </Array>
          </mxGeometry>
        </mxCell>
        <mxCell id="yy_gVU0dqNNYbV7ipbau-50" style="edgeStyle=orthogonalEdgeStyle;rounded=0;orthogonalLoop=1;jettySize=auto;html=1;entryX=-0.003;entryY=0.586;entryDx=0;entryDy=0;entryPerimeter=0;" parent="WIyWlLk6GJQsqaUBKTNV-1" edge="1">
          <mxGeometry relative="1" as="geometry">
            <mxPoint x="313.0000000000001" y="289.9999999999998" as="sourcePoint" />
            <mxPoint x="371.69999999999993" y="395.1600000000001" as="targetPoint" />
            <Array as="points">
              <mxPoint x="343" y="290" />
              <mxPoint x="343" y="395" />
            </Array>
          </mxGeometry>
        </mxCell>
        <mxCell id="yy_gVU0dqNNYbV7ipbau-88" style="edgeStyle=orthogonalEdgeStyle;rounded=0;orthogonalLoop=1;jettySize=auto;html=1;entryX=0;entryY=0.5;entryDx=0;entryDy=0;entryPerimeter=0;" parent="WIyWlLk6GJQsqaUBKTNV-1" edge="1">
          <mxGeometry relative="1" as="geometry">
            <mxPoint x="313" y="290" as="sourcePoint" />
            <mxPoint x="374" y="620" as="targetPoint" />
            <Array as="points">
              <mxPoint x="343" y="290" />
              <mxPoint x="343" y="620" />
            </Array>
          </mxGeometry>
        </mxCell>
        <mxCell id="yy_gVU0dqNNYbV7ipbau-89" style="edgeStyle=orthogonalEdgeStyle;rounded=0;orthogonalLoop=1;jettySize=auto;html=1;entryX=0;entryY=0.5;entryDx=0;entryDy=0;entryPerimeter=0;" parent="WIyWlLk6GJQsqaUBKTNV-1" edge="1">
          <mxGeometry relative="1" as="geometry">
            <mxPoint x="313" y="290" as="sourcePoint" />
            <mxPoint x="374" y="691" as="targetPoint" />
            <Array as="points">
              <mxPoint x="343" y="290" />
              <mxPoint x="343" y="691" />
            </Array>
          </mxGeometry>
        </mxCell>
        <mxCell id="yy_gVU0dqNNYbV7ipbau-11" value="" style="html=1;points=[];perimeter=orthogonalPerimeter;fillColor=strokeColor;" parent="WIyWlLk6GJQsqaUBKTNV-1" vertex="1">
          <mxGeometry x="305" y="-50" width="5" height="750" as="geometry" />
        </mxCell>
        <mxCell id="yy_gVU0dqNNYbV7ipbau-95" style="edgeStyle=orthogonalEdgeStyle;rounded=0;orthogonalLoop=1;jettySize=auto;html=1;entryX=0;entryY=0.213;entryDx=0;entryDy=0;entryPerimeter=0;" parent="WIyWlLk6GJQsqaUBKTNV-1" source="yy_gVU0dqNNYbV7ipbau-14" target="yy_gVU0dqNNYbV7ipbau-91" edge="1">
          <mxGeometry relative="1" as="geometry" />
        </mxCell>
        <mxCell id="yy_gVU0dqNNYbV7ipbau-14" value="Consultar Histórico de Simulados" style="strokeWidth=2;html=1;shape=mxgraph.flowchart.terminator;whiteSpace=wrap;" parent="WIyWlLk6GJQsqaUBKTNV-1" vertex="1">
          <mxGeometry x="375" y="80" width="100" height="60" as="geometry" />
        </mxCell>
        <mxCell id="yy_gVU0dqNNYbV7ipbau-96" style="edgeStyle=orthogonalEdgeStyle;rounded=0;orthogonalLoop=1;jettySize=auto;html=1;entryX=0.788;entryY=0.307;entryDx=0;entryDy=0;entryPerimeter=0;" parent="WIyWlLk6GJQsqaUBKTNV-1" source="yy_gVU0dqNNYbV7ipbau-15" target="yy_gVU0dqNNYbV7ipbau-91" edge="1">
          <mxGeometry relative="1" as="geometry" />
        </mxCell>
        <mxCell id="yy_gVU0dqNNYbV7ipbau-15" value="Consultar Sugestões de Estudo" style="strokeWidth=2;html=1;shape=mxgraph.flowchart.terminator;whiteSpace=wrap;" parent="WIyWlLk6GJQsqaUBKTNV-1" vertex="1">
          <mxGeometry x="372" y="150" width="100" height="60" as="geometry" />
        </mxCell>
        <mxCell id="yy_gVU0dqNNYbV7ipbau-97" style="edgeStyle=orthogonalEdgeStyle;rounded=0;orthogonalLoop=1;jettySize=auto;html=1;entryX=0.553;entryY=0.401;entryDx=0;entryDy=0;entryPerimeter=0;" parent="WIyWlLk6GJQsqaUBKTNV-1" source="yy_gVU0dqNNYbV7ipbau-16" target="yy_gVU0dqNNYbV7ipbau-91" edge="1">
          <mxGeometry relative="1" as="geometry" />
        </mxCell>
        <mxCell id="yy_gVU0dqNNYbV7ipbau-16" value="Consultar análise de desempenho" style="strokeWidth=2;html=1;shape=mxgraph.flowchart.terminator;whiteSpace=wrap;" parent="WIyWlLk6GJQsqaUBKTNV-1" vertex="1">
          <mxGeometry x="372" y="220" width="100" height="60" as="geometry" />
        </mxCell>
        <mxCell id="yy_gVU0dqNNYbV7ipbau-104" style="edgeStyle=orthogonalEdgeStyle;rounded=0;orthogonalLoop=1;jettySize=auto;html=1;entryX=-0.859;entryY=0.494;entryDx=0;entryDy=0;entryPerimeter=0;" parent="WIyWlLk6GJQsqaUBKTNV-1" source="yy_gVU0dqNNYbV7ipbau-17" edge="1">
          <mxGeometry relative="1" as="geometry">
            <mxPoint x="479" y="320" as="sourcePoint" />
            <mxPoint x="801.7050000000004" y="320.5" as="targetPoint" />
          </mxGeometry>
        </mxCell>
        <mxCell id="yy_gVU0dqNNYbV7ipbau-17" value="Comparar Resultados" style="strokeWidth=2;html=1;shape=mxgraph.flowchart.terminator;whiteSpace=wrap;" parent="WIyWlLk6GJQsqaUBKTNV-1" vertex="1">
          <mxGeometry x="373" y="290" width="100" height="60" as="geometry" />
        </mxCell>
        <mxCell id="yy_gVU0dqNNYbV7ipbau-100" style="edgeStyle=orthogonalEdgeStyle;rounded=0;orthogonalLoop=1;jettySize=auto;html=1;entryX=-0.388;entryY=0.888;entryDx=0;entryDy=0;entryPerimeter=0;" parent="WIyWlLk6GJQsqaUBKTNV-1" source="yy_gVU0dqNNYbV7ipbau-19" target="yy_gVU0dqNNYbV7ipbau-91" edge="1">
          <mxGeometry relative="1" as="geometry" />
        </mxCell>
        <mxCell id="yy_gVU0dqNNYbV7ipbau-19" value="Assistir Video Aulas" style="strokeWidth=2;html=1;shape=mxgraph.flowchart.terminator;whiteSpace=wrap;" parent="WIyWlLk6GJQsqaUBKTNV-1" vertex="1">
          <mxGeometry x="374" y="585" width="100" height="60" as="geometry" />
        </mxCell>
        <mxCell id="yy_gVU0dqNNYbV7ipbau-101" style="edgeStyle=orthogonalEdgeStyle;rounded=0;orthogonalLoop=1;jettySize=auto;html=1;entryX=0.082;entryY=0.98;entryDx=0;entryDy=0;entryPerimeter=0;" parent="WIyWlLk6GJQsqaUBKTNV-1" source="yy_gVU0dqNNYbV7ipbau-21" target="yy_gVU0dqNNYbV7ipbau-91" edge="1">
          <mxGeometry relative="1" as="geometry" />
        </mxCell>
        <mxCell id="yy_gVU0dqNNYbV7ipbau-21" value="Fale Conosco" style="strokeWidth=2;html=1;shape=mxgraph.flowchart.terminator;whiteSpace=wrap;" parent="WIyWlLk6GJQsqaUBKTNV-1" vertex="1">
          <mxGeometry x="373" y="654" width="100" height="60" as="geometry" />
        </mxCell>
        <mxCell id="g7qlXNUNTH1CSbTNShj2-1" style="edgeStyle=orthogonalEdgeStyle;rounded=0;orthogonalLoop=1;jettySize=auto;html=1;exitX=1;exitY=0.5;exitDx=0;exitDy=0;exitPerimeter=0;entryX=0;entryY=0.5;entryDx=0;entryDy=0;" edge="1" parent="WIyWlLk6GJQsqaUBKTNV-1" source="yy_gVU0dqNNYbV7ipbau-24" target="yy_gVU0dqNNYbV7ipbau-32">
          <mxGeometry relative="1" as="geometry" />
        </mxCell>
        <mxCell id="yy_gVU0dqNNYbV7ipbau-24" value="Informar dados a serem atualizados" style="strokeWidth=2;html=1;shape=mxgraph.flowchart.terminator;whiteSpace=wrap;" parent="WIyWlLk6GJQsqaUBKTNV-1" vertex="1">
          <mxGeometry x="390" y="-8" width="110" height="70" as="geometry" />
        </mxCell>
        <mxCell id="yy_gVU0dqNNYbV7ipbau-26" value="Efetivar atualização dos dados" style="strokeWidth=2;html=1;shape=mxgraph.flowchart.terminator;whiteSpace=wrap;" parent="WIyWlLk6GJQsqaUBKTNV-1" vertex="1">
          <mxGeometry x="628" y="-3" width="100" height="60" as="geometry" />
        </mxCell>
        <mxCell id="yy_gVU0dqNNYbV7ipbau-30" value="&lt;b&gt;Atualizar Perfil&lt;/b&gt;" style="text;html=1;align=center;verticalAlign=middle;resizable=0;points=[];autosize=1;strokeColor=none;fillColor=none;" parent="WIyWlLk6GJQsqaUBKTNV-1" vertex="1">
          <mxGeometry x="513" y="-62" width="110" height="30" as="geometry" />
        </mxCell>
        <mxCell id="yy_gVU0dqNNYbV7ipbau-35" style="edgeStyle=orthogonalEdgeStyle;rounded=0;orthogonalLoop=1;jettySize=auto;html=1;exitX=0.5;exitY=0;exitDx=0;exitDy=0;entryX=0.5;entryY=0;entryDx=0;entryDy=0;entryPerimeter=0;" parent="WIyWlLk6GJQsqaUBKTNV-1" source="yy_gVU0dqNNYbV7ipbau-32" target="yy_gVU0dqNNYbV7ipbau-24" edge="1">
          <mxGeometry relative="1" as="geometry">
            <Array as="points">
              <mxPoint x="551" y="-30" />
              <mxPoint x="445" y="-30" />
            </Array>
          </mxGeometry>
        </mxCell>
        <mxCell id="yy_gVU0dqNNYbV7ipbau-36" value="" style="edgeStyle=orthogonalEdgeStyle;rounded=0;orthogonalLoop=1;jettySize=auto;html=1;" parent="WIyWlLk6GJQsqaUBKTNV-1" source="yy_gVU0dqNNYbV7ipbau-32" target="yy_gVU0dqNNYbV7ipbau-26" edge="1">
          <mxGeometry relative="1" as="geometry" />
        </mxCell>
        <mxCell id="yy_gVU0dqNNYbV7ipbau-32" value="" style="rhombus;whiteSpace=wrap;html=1;" parent="WIyWlLk6GJQsqaUBKTNV-1" vertex="1">
          <mxGeometry x="526" y="6.5" width="50" height="41" as="geometry" />
        </mxCell>
        <mxCell id="yy_gVU0dqNNYbV7ipbau-37" value="[Dados inválidos]" style="text;html=1;align=center;verticalAlign=middle;resizable=0;points=[];autosize=1;strokeColor=none;fillColor=none;" parent="WIyWlLk6GJQsqaUBKTNV-1" vertex="1">
          <mxGeometry x="442" y="-37" width="110" height="30" as="geometry" />
        </mxCell>
        <mxCell id="yy_gVU0dqNNYbV7ipbau-38" value="[Dados Válidos]" style="text;html=1;align=center;verticalAlign=middle;resizable=0;points=[];autosize=1;strokeColor=none;fillColor=none;" parent="WIyWlLk6GJQsqaUBKTNV-1" vertex="1">
          <mxGeometry x="542" y="41" width="110" height="30" as="geometry" />
        </mxCell>
        <mxCell id="yy_gVU0dqNNYbV7ipbau-99" style="edgeStyle=orthogonalEdgeStyle;rounded=0;orthogonalLoop=1;jettySize=auto;html=1;entryX=1.259;entryY=0.69;entryDx=0;entryDy=0;entryPerimeter=0;" parent="WIyWlLk6GJQsqaUBKTNV-1" edge="1">
          <mxGeometry relative="1" as="geometry">
            <mxPoint x="743" y="468" as="sourcePoint" />
            <mxPoint x="803.2950000000001" y="467.5" as="targetPoint" />
          </mxGeometry>
        </mxCell>
        <mxCell id="yy_gVU0dqNNYbV7ipbau-53" value="" style="rounded=0;whiteSpace=wrap;html=1;" parent="WIyWlLk6GJQsqaUBKTNV-1" vertex="1">
          <mxGeometry x="372" y="363" width="374" height="210" as="geometry" />
        </mxCell>
        <mxCell id="yy_gVU0dqNNYbV7ipbau-54" value="Gerar Simulado" style="text;html=1;align=center;verticalAlign=middle;resizable=0;points=[];autosize=1;strokeColor=none;fillColor=none;fontStyle=1" parent="WIyWlLk6GJQsqaUBKTNV-1" vertex="1">
          <mxGeometry x="521" y="360" width="110" height="30" as="geometry" />
        </mxCell>
        <mxCell id="yy_gVU0dqNNYbV7ipbau-68" style="edgeStyle=orthogonalEdgeStyle;rounded=0;orthogonalLoop=1;jettySize=auto;html=1;exitX=0.5;exitY=0;exitDx=0;exitDy=0;entryX=0.014;entryY=0.366;entryDx=0;entryDy=0;entryPerimeter=0;" parent="WIyWlLk6GJQsqaUBKTNV-1" source="yy_gVU0dqNNYbV7ipbau-55" target="yy_gVU0dqNNYbV7ipbau-56" edge="1">
          <mxGeometry relative="1" as="geometry">
            <Array as="points">
              <mxPoint x="423" y="420" />
            </Array>
          </mxGeometry>
        </mxCell>
        <mxCell id="yy_gVU0dqNNYbV7ipbau-69" style="edgeStyle=orthogonalEdgeStyle;rounded=0;orthogonalLoop=1;jettySize=auto;html=1;entryX=0.002;entryY=0.61;entryDx=0;entryDy=0;entryPerimeter=0;" parent="WIyWlLk6GJQsqaUBKTNV-1" source="yy_gVU0dqNNYbV7ipbau-55" target="yy_gVU0dqNNYbV7ipbau-62" edge="1">
          <mxGeometry relative="1" as="geometry">
            <Array as="points">
              <mxPoint x="423" y="532" />
              <mxPoint x="474" y="532" />
            </Array>
          </mxGeometry>
        </mxCell>
        <mxCell id="yy_gVU0dqNNYbV7ipbau-79" style="edgeStyle=orthogonalEdgeStyle;rounded=0;orthogonalLoop=1;jettySize=auto;html=1;entryX=-0.105;entryY=0.414;entryDx=0;entryDy=0;entryPerimeter=0;exitX=1;exitY=0.5;exitDx=0;exitDy=0;" parent="WIyWlLk6GJQsqaUBKTNV-1" source="yy_gVU0dqNNYbV7ipbau-55" edge="1">
          <mxGeometry relative="1" as="geometry">
            <mxPoint x="451" y="475" as="sourcePoint" />
            <mxPoint x="602.4750000000001" y="475.48800000000006" as="targetPoint" />
            <Array as="points">
              <mxPoint x="525" y="475" />
            </Array>
          </mxGeometry>
        </mxCell>
        <mxCell id="yy_gVU0dqNNYbV7ipbau-55" value="" style="rhombus;whiteSpace=wrap;html=1;" parent="WIyWlLk6GJQsqaUBKTNV-1" vertex="1">
          <mxGeometry x="398" y="455" width="50" height="40" as="geometry" />
        </mxCell>
        <mxCell id="yy_gVU0dqNNYbV7ipbau-84" style="edgeStyle=orthogonalEdgeStyle;rounded=0;orthogonalLoop=1;jettySize=auto;html=1;entryX=0.181;entryY=0.191;entryDx=0;entryDy=0;entryPerimeter=0;" parent="WIyWlLk6GJQsqaUBKTNV-1" source="yy_gVU0dqNNYbV7ipbau-56" target="yy_gVU0dqNNYbV7ipbau-64" edge="1">
          <mxGeometry relative="1" as="geometry" />
        </mxCell>
        <mxCell id="yy_gVU0dqNNYbV7ipbau-56" value="Informar a disciplina" style="strokeWidth=2;html=1;shape=mxgraph.flowchart.terminator;whiteSpace=wrap;" parent="WIyWlLk6GJQsqaUBKTNV-1" vertex="1">
          <mxGeometry x="469" y="398" width="100" height="60" as="geometry" />
        </mxCell>
        <mxCell id="yy_gVU0dqNNYbV7ipbau-86" style="edgeStyle=orthogonalEdgeStyle;rounded=0;orthogonalLoop=1;jettySize=auto;html=1;entryX=0.752;entryY=0.791;entryDx=0;entryDy=0;entryPerimeter=0;" parent="WIyWlLk6GJQsqaUBKTNV-1" source="yy_gVU0dqNNYbV7ipbau-62" target="yy_gVU0dqNNYbV7ipbau-64" edge="1">
          <mxGeometry relative="1" as="geometry">
            <Array as="points">
              <mxPoint x="586" y="526" />
              <mxPoint x="586" y="526" />
            </Array>
          </mxGeometry>
        </mxCell>
        <mxCell id="yy_gVU0dqNNYbV7ipbau-62" value="Informar a instituição" style="strokeWidth=2;html=1;shape=mxgraph.flowchart.terminator;whiteSpace=wrap;" parent="WIyWlLk6GJQsqaUBKTNV-1" vertex="1">
          <mxGeometry x="474" y="495" width="100" height="60" as="geometry" />
        </mxCell>
        <mxCell id="yy_gVU0dqNNYbV7ipbau-63" value="Gerar Simulado" style="strokeWidth=2;html=1;shape=mxgraph.flowchart.terminator;whiteSpace=wrap;" parent="WIyWlLk6GJQsqaUBKTNV-1" vertex="1">
          <mxGeometry x="636" y="449" width="100" height="60" as="geometry" />
        </mxCell>
        <mxCell id="yy_gVU0dqNNYbV7ipbau-87" style="edgeStyle=orthogonalEdgeStyle;rounded=0;orthogonalLoop=1;jettySize=auto;html=1;entryX=0;entryY=0.5;entryDx=0;entryDy=0;entryPerimeter=0;" parent="WIyWlLk6GJQsqaUBKTNV-1" source="yy_gVU0dqNNYbV7ipbau-64" target="yy_gVU0dqNNYbV7ipbau-63" edge="1">
          <mxGeometry relative="1" as="geometry" />
        </mxCell>
        <mxCell id="yy_gVU0dqNNYbV7ipbau-64" value="" style="html=1;points=[];perimeter=orthogonalPerimeter;fillColor=strokeColor;" parent="WIyWlLk6GJQsqaUBKTNV-1" vertex="1">
          <mxGeometry x="602" y="398" width="5" height="162" as="geometry" />
        </mxCell>
        <mxCell id="yy_gVU0dqNNYbV7ipbau-80" value="[Por disciplina]" style="text;html=1;align=center;verticalAlign=middle;resizable=0;points=[];autosize=1;strokeColor=none;fillColor=none;" parent="WIyWlLk6GJQsqaUBKTNV-1" vertex="1">
          <mxGeometry x="376" y="390" width="100" height="30" as="geometry" />
        </mxCell>
        <mxCell id="yy_gVU0dqNNYbV7ipbau-81" value="[Por instituição]" style="text;html=1;align=center;verticalAlign=middle;resizable=0;points=[];autosize=1;strokeColor=none;fillColor=none;" parent="WIyWlLk6GJQsqaUBKTNV-1" vertex="1">
          <mxGeometry x="381" y="531" width="110" height="30" as="geometry" />
        </mxCell>
        <mxCell id="yy_gVU0dqNNYbV7ipbau-83" value="[Aleatório]" style="text;html=1;align=center;verticalAlign=middle;resizable=0;points=[];autosize=1;strokeColor=none;fillColor=none;" parent="WIyWlLk6GJQsqaUBKTNV-1" vertex="1">
          <mxGeometry x="475" y="453" width="80" height="30" as="geometry" />
        </mxCell>
        <mxCell id="yy_gVU0dqNNYbV7ipbau-90" value="[Entrou como estudante]" style="text;html=1;align=center;verticalAlign=middle;resizable=0;points=[];autosize=1;strokeColor=none;fillColor=none;" parent="WIyWlLk6GJQsqaUBKTNV-1" vertex="1">
          <mxGeometry x="155" y="380" width="150" height="30" as="geometry" />
        </mxCell>
        <mxCell id="icYMfF4OYRkZsoKpA9O9-6" style="edgeStyle=orthogonalEdgeStyle;rounded=0;orthogonalLoop=1;jettySize=auto;html=1;entryX=0;entryY=0.5;entryDx=0;entryDy=0;" parent="WIyWlLk6GJQsqaUBKTNV-1" source="yy_gVU0dqNNYbV7ipbau-91" target="yy_gVU0dqNNYbV7ipbau-105" edge="1">
          <mxGeometry relative="1" as="geometry">
            <Array as="points">
              <mxPoint x="825" y="332" />
            </Array>
          </mxGeometry>
        </mxCell>
        <mxCell id="yy_gVU0dqNNYbV7ipbau-91" value="" style="html=1;points=[];perimeter=orthogonalPerimeter;fillColor=strokeColor;" parent="WIyWlLk6GJQsqaUBKTNV-1" vertex="1">
          <mxGeometry x="800" y="-50" width="5" height="750" as="geometry" />
        </mxCell>
        <mxCell id="yy_gVU0dqNNYbV7ipbau-109" value="" style="edgeStyle=orthogonalEdgeStyle;rounded=0;orthogonalLoop=1;jettySize=auto;html=1;" parent="WIyWlLk6GJQsqaUBKTNV-1" source="yy_gVU0dqNNYbV7ipbau-105" target="yy_gVU0dqNNYbV7ipbau-1" edge="1">
          <mxGeometry relative="1" as="geometry">
            <Array as="points">
              <mxPoint x="930" y="335" />
              <mxPoint x="930" y="335" />
            </Array>
          </mxGeometry>
        </mxCell>
        <mxCell id="yy_gVU0dqNNYbV7ipbau-111" style="edgeStyle=orthogonalEdgeStyle;rounded=0;orthogonalLoop=1;jettySize=auto;html=1;exitX=0.5;exitY=0;exitDx=0;exitDy=0;" parent="WIyWlLk6GJQsqaUBKTNV-1" source="yy_gVU0dqNNYbV7ipbau-105" edge="1">
          <mxGeometry relative="1" as="geometry">
            <mxPoint x="883" y="302" as="sourcePoint" />
            <mxPoint x="308" y="-51" as="targetPoint" />
            <Array as="points">
              <mxPoint x="855" y="-90" />
              <mxPoint x="308" y="-90" />
            </Array>
          </mxGeometry>
        </mxCell>
        <mxCell id="yy_gVU0dqNNYbV7ipbau-105" value="Sair?" style="rhombus;whiteSpace=wrap;html=1;" parent="WIyWlLk6GJQsqaUBKTNV-1" vertex="1">
          <mxGeometry x="831" y="311" width="50" height="41" as="geometry" />
        </mxCell>
        <mxCell id="yy_gVU0dqNNYbV7ipbau-112" value="[SIM]" style="text;html=1;align=center;verticalAlign=middle;resizable=0;points=[];autosize=1;strokeColor=none;fillColor=none;" parent="WIyWlLk6GJQsqaUBKTNV-1" vertex="1">
          <mxGeometry x="860" y="330" width="50" height="30" as="geometry" />
        </mxCell>
        <mxCell id="yy_gVU0dqNNYbV7ipbau-113" value="[NÃO]" style="text;html=1;align=center;verticalAlign=middle;resizable=0;points=[];autosize=1;strokeColor=none;fillColor=none;rotation=-90;" parent="WIyWlLk6GJQsqaUBKTNV-1" vertex="1">
          <mxGeometry x="810" y="190" width="60" height="30" as="geometry" />
        </mxCell>
      </root>
    </mxGraphModel>
  </diagram>
</mxfile>
